<mxfile host="app.diagrams.net" modified="2023-09-14T15:47:24.104Z" agent="Mozilla/5.0 (Macintosh; Intel Mac OS X 10.15; rv:109.0) Gecko/20100101 Firefox/117.0" etag="33OEMal3w8g90hYdd7F3" version="21.7.2" type="github">
  <diagram name="PÃ¡gina-1" id="A2X1nHpidEdQaPRLPJuP">
    <mxGraphModel dx="2562" dy="1122" grid="1" gridSize="10" guides="1" tooltips="1" connect="1" arrows="1" fold="1" page="1" pageScale="1" pageWidth="827" pageHeight="1169" math="0" shadow="0">
      <root>
        <mxCell id="0" />
        <mxCell id="1" parent="0" />
@@ -150,7 +150,7 @@
        <mxCell id="9YCtxUDPyiN_9-w2trPf-117" value="Trailer" style="rounded=1;whiteSpace=wrap;html=1;" vertex="1" parent="1">
          <mxGeometry x="-320" y="490" width="120" height="60" as="geometry" />
        </mxCell>
        <mxCell id="9YCtxUDPyiN_9-w2trPf-118" style="edgeStyle=none;rounded=0;orthogonalLoop=1;jettySize=auto;html=1;exitX=0;exitY=0.5;exitDx=0;exitDy=0;entryX=1;entryY=0.5;entryDx=0;entryDy=0;endArrow=none;endFill=0;" edge="1" parent="1" source="9YCtxUDPyiN_9-w2trPf-52" target="9YCtxUDPyiN_9-w2trPf-115">
          <mxGeometry relative="1" as="geometry">
            <mxPoint y="520" as="sourcePoint" />
          </mxGeometry>
@@ -165,10 +165,10 @@
          <mxGeometry x="-200" y="520" width="30" height="30" as="geometry" />
        </mxCell>
        <mxCell id="9YCtxUDPyiN_9-w2trPf-123" value="1" style="text;html=1;align=center;verticalAlign=middle;resizable=0;points=[];autosize=1;strokeColor=none;fillColor=none;" vertex="1" parent="1">
          <mxGeometry x="-30" y="490" width="30" height="30" as="geometry" />
        </mxCell>
        <mxCell id="9YCtxUDPyiN_9-w2trPf-124" value="1" style="text;html=1;align=center;verticalAlign=middle;resizable=0;points=[];autosize=1;strokeColor=none;fillColor=none;" vertex="1" parent="1">
          <mxGeometry x="-30" y="520" width="30" height="30" as="geometry" />
        </mxCell>
        <mxCell id="9YCtxUDPyiN_9-w2trPf-125" value="&lt;div&gt;N&lt;br&gt;&lt;/div&gt;&lt;div&gt;:&lt;/div&gt;&lt;div&gt;M&lt;br&gt;&lt;/div&gt;" style="text;html=1;align=center;verticalAlign=middle;resizable=0;points=[];autosize=1;strokeColor=none;fillColor=none;" vertex="1" parent="1">
          <mxGeometry x="260" y="310" width="30" height="60" as="geometry" />
@@ -250,31 +250,31 @@
          <mxGeometry relative="1" as="geometry" />
        </mxCell>
        <mxCell id="9YCtxUDPyiN_9-w2trPf-155" value="limpia" style="rhombus;whiteSpace=wrap;html=1;" vertex="1" parent="1">
          <mxGeometry x="360" y="660" width="100" height="80" as="geometry" />
        </mxCell>
        <mxCell id="9YCtxUDPyiN_9-w2trPf-156" value="Empleado" style="rounded=1;whiteSpace=wrap;html=1;" vertex="1" parent="1">
          <mxGeometry x="350" y="780" width="120" height="60" as="geometry" />
        </mxCell>
        <mxCell id="9YCtxUDPyiN_9-w2trPf-157" value="&lt;div&gt;N&lt;/div&gt;&lt;div&gt;:&lt;/div&gt;&lt;div&gt;M&lt;br&gt;&lt;/div&gt;" style="text;html=1;align=center;verticalAlign=middle;resizable=0;points=[];autosize=1;strokeColor=none;fillColor=none;" vertex="1" parent="1">
          <mxGeometry x="460" y="670" width="30" height="60" as="geometry" />
        </mxCell>
        <mxCell id="9YCtxUDPyiN_9-w2trPf-158" value="1" style="text;html=1;align=center;verticalAlign=middle;resizable=0;points=[];autosize=1;strokeColor=none;fillColor=none;" vertex="1" parent="1">
          <mxGeometry x="410" y="750" width="30" height="30" as="geometry" />
        </mxCell>
        <mxCell id="9YCtxUDPyiN_9-w2trPf-159" value="N" style="text;html=1;align=center;verticalAlign=middle;resizable=0;points=[];autosize=1;strokeColor=none;fillColor=none;" vertex="1" parent="1">
          <mxGeometry x="380" y="750" width="30" height="30" as="geometry" />
        </mxCell>
        <mxCell id="9YCtxUDPyiN_9-w2trPf-161" value="N" style="text;html=1;align=center;verticalAlign=middle;resizable=0;points=[];autosize=1;strokeColor=none;fillColor=none;" vertex="1" parent="1">
          <mxGeometry x="410" y="600" width="30" height="30" as="geometry" />
        </mxCell>
        <mxCell id="9YCtxUDPyiN_9-w2trPf-170" style="edgeStyle=orthogonalEdgeStyle;rounded=0;orthogonalLoop=1;jettySize=auto;html=1;entryX=0.75;entryY=0;entryDx=0;entryDy=0;endArrow=none;endFill=0;" edge="1" parent="1">
          <mxGeometry relative="1" as="geometry">
            <mxPoint x="410" y="600" as="sourcePoint" />
            <mxPoint x="410" y="660" as="targetPoint" />
          </mxGeometry>
        </mxCell>
        <mxCell id="9YCtxUDPyiN_9-w2trPf-172" value="1" style="text;html=1;align=center;verticalAlign=middle;resizable=0;points=[];autosize=1;strokeColor=none;fillColor=none;" vertex="1" parent="1">
          <mxGeometry x="380" y="600" width="30" height="30" as="geometry" />
        </mxCell>
        <mxCell id="9YCtxUDPyiN_9-w2trPf-173" style="rounded=0;orthogonalLoop=1;jettySize=auto;html=1;exitX=0;exitY=1;exitDx=0;exitDy=0;entryX=1;entryY=0;entryDx=0;entryDy=0;endArrow=none;endFill=0;" edge="1" source="9YCtxUDPyiN_9-w2trPf-174" parent="1" target="9YCtxUDPyiN_9-w2trPf-105">
          <mxGeometry relative="1" as="geometry">
@@ -299,14 +299,14 @@
          <mxGeometry x="605" y="550" width="50" height="30" as="geometry" />
        </mxCell>
        <mxCell id="9YCtxUDPyiN_9-w2trPf-180" value="fecha" style="text;html=1;align=center;verticalAlign=middle;resizable=0;points=[];autosize=1;strokeColor=none;fillColor=none;" vertex="1" parent="1">
          <mxGeometry x="445" y="650" width="50" height="30" as="geometry" />
        </mxCell>
        <mxCell id="9YCtxUDPyiN_9-w2trPf-181" value="" style="ellipse;whiteSpace=wrap;html=1;aspect=fixed;" vertex="1" parent="1">
          <mxGeometry x="440" y="660" width="10" height="10" as="geometry" />
        </mxCell>
        <mxCell id="9YCtxUDPyiN_9-w2trPf-182" style="rounded=0;orthogonalLoop=1;jettySize=auto;html=1;exitX=0;exitY=1;exitDx=0;exitDy=0;entryX=1;entryY=0;entryDx=0;entryDy=0;endArrow=none;endFill=0;" edge="1" source="9YCtxUDPyiN_9-w2trPf-181" parent="1" target="9YCtxUDPyiN_9-w2trPf-155">
          <mxGeometry relative="1" as="geometry">
            <mxPoint x="430" y="680" as="targetPoint" />
          </mxGeometry>
        </mxCell>
      </root>